<?xml version="1.0" encoding="UTF-8"?>
<svg width="13px" height="11px" viewBox="0 0 13 11" version="1.1" xmlns="http://www.w3.org/2000/svg" xmlns:xlink="http://www.w3.org/1999/xlink">
    <title>01620E02-676B-433F-9332-A6DA604A8391</title>
    <g id="HP---v1" stroke="none" stroke-width="1" fill="none" fill-rule="evenodd">
        <g id="m.srio.hp.v1" transform="translate(-222.000000, -606.000000)" fill="#000000" stroke="#000000">
            <g id="cta/secondary.default-copy-4" transform="translate(100.000000, 586.000000)">
                <g id="Group-5">
                    <path d="M128.676,21.1616766 C128.910667,20.9461078 129.292,20.9461078 129.541333,21.1616766 L129.541333,21.1616766 L133.824,25.1092814 C134.058667,25.3248503 134.058667,25.6751497 133.824,25.9041916 L133.824,25.9041916 L129.541333,29.8383234 C129.292,30.0538922 128.910667,30.0538922 128.676,29.8383234 C128.441333,29.6227545 128.441333,29.2724551 128.676,29.0434132 L128.676,29.0434132 L132.533333,25.5 L128.676,21.9565868 C128.441333,21.741018 128.441333,21.3772455 128.676,21.1616766 Z M131.536667,24.87 C131.884606,24.87 132.166667,25.1520606 132.166667,25.5 C132.166667,25.8479394 131.884606,26.13 131.536667,26.13 L123.63,26.13 C123.282061,26.13 123,25.8479394 123,25.5 C123,25.1520606 123.282061,24.87 123.63,24.87 L131.536667,24.87 Z" id="Combined-Shape"></path>
                </g>
            </g>
        </g>
    </g>
</svg>